<svg width="21" height="20" viewBox="0 0 21 20" fill="none" xmlns="http://www.w3.org/2000/svg">
<path d="M18.1409 1.26204C17.9174 0.549126 17.2917 0.041626 16.5542 0.041626H4.26302C3.52554 0.041626 2.91098 0.549126 2.67633 1.26204L0.352173 8.49996V18.1666C0.352173 18.8312 0.854995 19.375 1.46956 19.375H2.58694C3.2015 19.375 3.70432 18.8312 3.70432 18.1666V16.9583H17.1129V18.1666C17.1129 18.8312 17.6157 19.375 18.2303 19.375H19.3477C19.9623 19.375 20.4651 18.8312 20.4651 18.1666V8.49996L18.1409 1.26204ZM4.26302 13.3333C3.33559 13.3333 2.58694 12.5237 2.58694 11.5208C2.58694 10.5179 3.33559 9.70829 4.26302 9.70829C5.19044 9.70829 5.93909 10.5179 5.93909 11.5208C5.93909 12.5237 5.19044 13.3333 4.26302 13.3333ZM16.5542 13.3333C15.6268 13.3333 14.8782 12.5237 14.8782 11.5208C14.8782 10.5179 15.6268 9.70829 16.5542 9.70829C17.4817 9.70829 18.2303 10.5179 18.2303 11.5208C18.2303 12.5237 17.4817 13.3333 16.5542 13.3333ZM2.58694 7.29163L4.26302 1.85413H16.5542L18.2303 7.29163H2.58694Z" fill="black"/>
</svg>
