<svg width="205" height="22" viewBox="0 0 205 22" fill="none" xmlns="http://www.w3.org/2000/svg">
<path d="M14.776 19.984C14.9893 20.4747 14.9573 20.9227 14.68 21.328C14.36 21.776 13.9547 22 13.464 22H12.504C12.2267 22 11.9493 21.9147 11.672 21.744C11.416 21.5733 11.2347 21.36 11.128 21.104L8.12 13.904C8.01333 13.648 7.82133 13.52 7.544 13.52H4.568C4.29067 13.52 4.152 13.6587 4.152 13.936V20.528C4.152 20.9333 4.00267 21.2853 3.704 21.584C3.42667 21.8613 3.08533 22 2.68 22H1.784C1.37867 22 1.03733 21.8613 0.76 21.584C0.504 21.2853 0.376 20.9333 0.376 20.528V1.84C0.376 1.41333 0.504 1.06133 0.76 0.783998C1.03733 0.506665 1.37867 0.367998 1.784 0.367998H10.456C11.224 0.367998 11.928 0.559998 12.568 0.943998C13.208 1.328 13.72 1.84 14.104 2.48C14.488 3.12 14.68 3.83467 14.68 4.624V9.296C14.68 10.128 14.456 10.8853 14.008 11.568C13.5813 12.2293 13.016 12.7413 12.312 13.104C12.2267 13.1253 12.1627 13.2 12.12 13.328C12.0773 13.4347 12.088 13.5413 12.152 13.648L14.776 19.984ZM10.872 9.296V4.624C10.872 4.32533 10.7333 4.176 10.456 4.176H4.568C4.29067 4.176 4.152 4.31467 4.152 4.592V9.296C4.152 9.57333 4.29067 9.712 4.568 9.712H10.456C10.7333 9.712 10.872 9.57333 10.872 9.296ZM29.114 12.496C29.114 13.136 28.954 13.7333 28.634 14.288C28.314 14.8213 27.8873 15.2587 27.354 15.6C26.8207 15.92 26.2233 16.08 25.562 16.08H21.786C21.6793 16.08 21.5727 16.1227 21.466 16.208C21.3807 16.272 21.338 16.3573 21.338 16.464V17.808C21.338 17.9147 21.3807 18.0107 21.466 18.096C21.5727 18.1813 21.6793 18.224 21.786 18.224H25.562C25.9673 18.224 26.3087 18.3627 26.586 18.64C26.8847 18.9173 27.034 19.2693 27.034 19.696V20.528C27.034 20.9333 26.8847 21.2853 26.586 21.584C26.3087 21.8613 25.9673 22 25.562 22H21.114C20.1327 22 19.29 21.6587 18.586 20.976C17.882 20.272 17.53 19.4187 17.53 18.416V9.008C17.53 8.34667 17.69 7.74933 18.01 7.216C18.3513 6.68267 18.7887 6.256 19.322 5.936C19.8553 5.59467 20.4527 5.424 21.114 5.424H25.562C26.2233 5.424 26.8207 5.59467 27.354 5.936C27.8873 6.256 28.314 6.68267 28.634 7.216C28.954 7.74933 29.114 8.34667 29.114 9.008V12.496ZM25.338 11.856V9.68C25.338 9.552 25.2847 9.44533 25.178 9.36C25.0927 9.27467 24.9967 9.232 24.89 9.232H21.786C21.6793 9.232 21.5727 9.27467 21.466 9.36C21.3807 9.44533 21.338 9.552 21.338 9.68V11.856C21.338 11.9413 21.3807 12.0267 21.466 12.112C21.5727 12.1973 21.6793 12.24 21.786 12.24H24.89C24.9967 12.24 25.0927 12.1973 25.178 12.112C25.2847 12.0267 25.338 11.9413 25.338 11.856ZM43.3015 20.528C43.3015 20.9333 43.1628 21.2853 42.8855 21.584C42.6082 21.8613 42.2668 22 41.8615 22H40.9655C40.5602 22 40.2188 21.8613 39.9415 21.584C39.6642 21.2853 39.5255 20.9333 39.5255 20.528V9.68C39.5255 9.552 39.4722 9.44533 39.3655 9.36C39.2802 9.27467 39.1842 9.232 39.0775 9.232H35.9735C35.8668 9.232 35.7602 9.27467 35.6535 9.36C35.5682 9.44533 35.5255 9.552 35.5255 9.68V20.528C35.5255 20.9333 35.3868 21.2853 35.1095 21.584C34.8322 21.8613 34.4908 22 34.0855 22H33.1895C32.7842 22 32.4322 21.8613 32.1335 21.584C31.8562 21.2853 31.7175 20.9333 31.7175 20.528V9.008C31.7175 8.34667 31.8775 7.74933 32.1975 7.216C32.5388 6.66133 32.9762 6.224 33.5095 5.904C34.0428 5.584 34.6402 5.424 35.3015 5.424H39.7495C40.4108 5.424 41.0082 5.584 41.5415 5.904C42.0748 6.224 42.5015 6.66133 42.8215 7.216C43.1415 7.74933 43.3015 8.34667 43.3015 9.008V20.528ZM55.409 20.528C55.409 20.9333 55.2703 21.2853 54.993 21.584C54.7157 21.8613 54.3743 22 53.969 22H49.489C48.5077 22 47.665 21.6587 46.961 20.976C46.2783 20.272 45.937 19.4187 45.937 18.416V1.84C45.937 1.41333 46.0757 1.06133 46.353 0.783998C46.6303 0.506665 46.9717 0.367998 47.377 0.367998H48.273C48.6783 0.367998 49.0197 0.506665 49.297 0.783998C49.5957 1.06133 49.745 1.41333 49.745 1.84V5.04C49.745 5.296 49.8837 5.424 50.161 5.424H53.969C54.3743 5.424 54.7157 5.57333 54.993 5.872C55.2703 6.14933 55.409 6.50133 55.409 6.928V7.792C55.409 8.15467 55.2703 8.496 54.993 8.816C54.673 9.09333 54.3317 9.232 53.969 9.232H50.161C49.8837 9.232 49.745 9.38133 49.745 9.68V17.808C49.745 18.0853 49.8837 18.224 50.161 18.224H53.969C54.3743 18.224 54.7157 18.3627 54.993 18.64C55.2703 18.9173 55.409 19.2693 55.409 19.696V20.528ZM69.5828 18.416C69.5828 19.4187 69.2308 20.272 68.5268 20.976C67.8441 21.6587 67.0121 22 66.0308 22H61.5828C60.6014 22 59.7588 21.6587 59.0548 20.976C58.3508 20.272 57.9988 19.4187 57.9988 18.416V14.928C57.9988 14.2667 58.1588 13.68 58.4788 13.168C58.8201 12.6347 59.2574 12.208 59.7908 11.888C60.3241 11.568 60.9214 11.408 61.5828 11.408H65.3588C65.4654 11.408 65.5614 11.3653 65.6468 11.28C65.7534 11.1947 65.8068 11.088 65.8068 10.96V9.68C65.8068 9.552 65.7534 9.44533 65.6468 9.36C65.5614 9.27467 65.4654 9.232 65.3588 9.232H61.5828C61.1774 9.232 60.8254 9.09333 60.5268 8.816C60.2494 8.53867 60.1108 8.19733 60.1108 7.792V6.928C60.1108 6.50133 60.2494 6.14933 60.5268 5.872C60.8254 5.57333 61.1774 5.424 61.5828 5.424H66.0308C66.6921 5.424 67.2894 5.584 67.8228 5.904C68.3561 6.224 68.7828 6.66133 69.1028 7.216C69.4228 7.74933 69.5828 8.34667 69.5828 9.008V18.416ZM65.8068 17.808V15.6C65.8068 15.4933 65.7534 15.3973 65.6468 15.312C65.5614 15.2267 65.4654 15.184 65.3588 15.184H62.2548C62.1481 15.184 62.0414 15.2267 61.9348 15.312C61.8494 15.3973 61.8068 15.4933 61.8068 15.6V17.808C61.8068 17.9147 61.8494 18.0107 61.9348 18.096C62.0414 18.1813 62.1481 18.224 62.2548 18.224H65.3588C65.4654 18.224 65.5614 18.1813 65.6468 18.096C65.7534 18.0107 65.8068 17.9147 65.8068 17.808ZM78.0103 20.528C78.0103 20.9333 77.8609 21.2853 77.5623 21.584C77.2849 21.8613 76.9436 22 76.5383 22H75.7383C74.7569 22 73.9143 21.6587 73.2103 20.976C72.5063 20.272 72.1543 19.4187 72.1543 18.416V1.84C72.1543 1.41333 72.2929 1.06133 72.5703 0.783998C72.8689 0.506665 73.2209 0.367998 73.6263 0.367998H74.5223C74.9276 0.367998 75.2689 0.506665 75.5463 0.783998C75.8449 1.06133 75.9943 1.41333 75.9943 1.84V17.808C75.9943 18.0853 76.1223 18.224 76.3783 18.224H76.5383C76.9436 18.224 77.2849 18.3627 77.5623 18.64C77.8609 18.9173 78.0103 19.2693 78.0103 19.696V20.528ZM104.865 20.528C104.865 20.9333 104.726 21.2853 104.449 21.584C104.172 21.8613 103.82 22 103.393 22H102.529C102.124 22 101.772 21.8613 101.473 21.584C101.196 21.2853 101.057 20.9333 101.057 20.528V10.896C101.057 10.8107 101.014 10.7573 100.929 10.736C100.865 10.7147 100.812 10.736 100.769 10.8L97.697 17.136C97.633 17.3067 97.4943 17.456 97.281 17.584C97.0677 17.712 96.865 17.8187 96.673 17.904C96.5023 17.968 96.417 18 96.417 18C95.7557 18 95.3183 17.712 95.105 17.136L92.033 10.8C92.0117 10.736 91.9583 10.7147 91.873 10.736C91.7877 10.7573 91.745 10.8107 91.745 10.896V20.528C91.745 20.9333 91.5957 21.2853 91.297 21.584C91.0197 21.8613 90.6783 22 90.273 22H89.377C88.9717 22 88.6197 21.8613 88.321 21.584C88.0437 21.2853 87.905 20.9333 87.905 20.528V1.84C87.905 1.41333 88.0437 1.06133 88.321 0.783998C88.6197 0.506665 88.9717 0.367998 89.377 0.367998H90.305C90.9023 0.367998 91.3397 0.645332 91.617 1.2C91.7237 1.43467 91.937 1.89333 92.257 2.576C92.5983 3.23733 92.993 4.02667 93.441 4.944C93.889 5.86133 94.3477 6.832 94.817 7.856C95.3077 8.85867 95.777 9.81867 96.225 10.736C96.2677 10.8213 96.321 10.864 96.385 10.864C96.4703 10.864 96.5343 10.8213 96.577 10.736L101.153 1.2C101.43 0.645332 101.878 0.367998 102.497 0.367998H103.393C103.82 0.367998 104.172 0.506665 104.449 0.783998C104.726 1.06133 104.865 1.41333 104.865 1.84V20.528ZM119.052 18.416C119.052 19.4187 118.7 20.272 117.996 20.976C117.313 21.6587 116.481 22 115.5 22H111.052C110.07 22 109.228 21.6587 108.524 20.976C107.82 20.272 107.468 19.4187 107.468 18.416V9.008C107.468 8.34667 107.628 7.74933 107.948 7.216C108.289 6.66133 108.726 6.224 109.26 5.904C109.793 5.584 110.39 5.424 111.052 5.424H115.5C116.161 5.424 116.758 5.584 117.292 5.904C117.825 6.224 118.252 6.66133 118.572 7.216C118.892 7.74933 119.052 8.34667 119.052 9.008V18.416ZM115.276 17.808V9.68C115.276 9.552 115.222 9.44533 115.116 9.36C115.03 9.27467 114.934 9.232 114.828 9.232H111.724C111.617 9.232 111.51 9.27467 111.404 9.36C111.318 9.44533 111.276 9.552 111.276 9.68V17.808C111.276 17.9147 111.318 18.0107 111.404 18.096C111.51 18.1813 111.617 18.224 111.724 18.224H114.828C114.934 18.224 115.03 18.1813 115.116 18.096C115.222 18.0107 115.276 17.9147 115.276 17.808ZM133.239 18.416C133.239 19.4187 132.887 20.272 132.183 20.976C131.5 21.6587 130.668 22 129.687 22H125.239C124.258 22 123.415 21.6587 122.711 20.976C122.007 20.272 121.655 19.4187 121.655 18.416V1.84C121.655 1.41333 121.794 1.06133 122.071 0.783998C122.37 0.506665 122.722 0.367998 123.127 0.367998H124.023C124.428 0.367998 124.77 0.506665 125.047 0.783998C125.324 1.06133 125.463 1.41333 125.463 1.84V5.04C125.463 5.14667 125.506 5.24267 125.591 5.328C125.698 5.392 125.804 5.424 125.911 5.424H129.687C130.348 5.424 130.946 5.584 131.479 5.904C132.012 6.224 132.439 6.66133 132.759 7.216C133.079 7.74933 133.239 8.34667 133.239 9.008V18.416ZM129.463 17.808V9.68C129.463 9.38133 129.314 9.232 129.015 9.232H125.911C125.804 9.232 125.698 9.27467 125.591 9.36C125.506 9.44533 125.463 9.552 125.463 9.68V17.808C125.463 17.9147 125.506 18.0107 125.591 18.096C125.698 18.1813 125.804 18.224 125.911 18.224H129.015C129.314 18.224 129.463 18.0853 129.463 17.808ZM140.675 2.416C140.675 3.07733 140.429 3.65333 139.939 4.144C139.469 4.61333 138.915 4.848 138.275 4.848C137.613 4.848 137.037 4.61333 136.547 4.144C136.077 3.65333 135.843 3.07733 135.843 2.416C135.843 1.776 136.077 1.22133 136.547 0.751999C137.037 0.261332 137.613 0.0159988 138.275 0.0159988C138.915 0.0159988 139.469 0.261332 139.939 0.751999C140.429 1.22133 140.675 1.776 140.675 2.416ZM140.163 20.528C140.163 20.9333 140.013 21.2853 139.715 21.584C139.437 21.8613 139.096 22 138.691 22H137.827C137.421 22 137.069 21.8613 136.771 21.584C136.493 21.2853 136.355 20.9333 136.355 20.528V7.248C136.355 6.84267 136.493 6.50133 136.771 6.224C137.069 5.92533 137.421 5.776 137.827 5.776H138.691C139.096 5.776 139.437 5.92533 139.715 6.224C140.013 6.50133 140.163 6.84267 140.163 7.248V20.528ZM149.073 20.528C149.073 20.9333 148.923 21.2853 148.625 21.584C148.347 21.8613 148.006 22 147.601 22H146.801C145.819 22 144.977 21.6587 144.273 20.976C143.569 20.272 143.217 19.4187 143.217 18.416V1.84C143.217 1.41333 143.355 1.06133 143.633 0.783998C143.931 0.506665 144.283 0.367998 144.689 0.367998H145.585C145.99 0.367998 146.331 0.506665 146.609 0.783998C146.907 1.06133 147.057 1.41333 147.057 1.84V17.808C147.057 18.0853 147.185 18.224 147.441 18.224H147.601C148.006 18.224 148.347 18.3627 148.625 18.64C148.923 18.9173 149.073 19.2693 149.073 19.696V20.528ZM156.425 2.416C156.425 3.07733 156.179 3.65333 155.689 4.144C155.219 4.61333 154.665 4.848 154.025 4.848C153.363 4.848 152.787 4.61333 152.297 4.144C151.827 3.65333 151.593 3.07733 151.593 2.416C151.593 1.776 151.827 1.22133 152.297 0.751999C152.787 0.261332 153.363 0.0159988 154.025 0.0159988C154.665 0.0159988 155.219 0.261332 155.689 0.751999C156.179 1.22133 156.425 1.776 156.425 2.416ZM155.913 20.528C155.913 20.9333 155.763 21.2853 155.465 21.584C155.187 21.8613 154.846 22 154.441 22H153.577C153.171 22 152.819 21.8613 152.521 21.584C152.243 21.2853 152.105 20.9333 152.105 20.528V7.248C152.105 6.84267 152.243 6.50133 152.521 6.224C152.819 5.92533 153.171 5.776 153.577 5.776H154.441C154.846 5.776 155.187 5.92533 155.465 6.224C155.763 6.50133 155.913 6.84267 155.913 7.248V20.528ZM170.583 18.416C170.583 19.4187 170.231 20.272 169.527 20.976C168.844 21.6587 168.012 22 167.031 22H162.583C161.601 22 160.759 21.6587 160.055 20.976C159.351 20.272 158.999 19.4187 158.999 18.416V17.104C158.999 16.6987 159.137 16.3573 159.415 16.08C159.713 15.7813 160.065 15.632 160.471 15.632H161.367C161.772 15.632 162.113 15.7813 162.391 16.08C162.668 16.3573 162.807 16.6987 162.807 17.104V17.808C162.807 18.0853 162.956 18.224 163.255 18.224H166.359C166.465 18.224 166.561 18.1813 166.647 18.096C166.753 18.0107 166.807 17.9147 166.807 17.808V16.624C166.807 16.4533 166.721 16.336 166.551 16.272L161.911 14.8C161.057 14.5013 160.353 13.9893 159.799 13.264C159.265 12.5387 158.999 11.7173 158.999 10.8V9.008C158.999 8.34667 159.159 7.74933 159.479 7.216C159.82 6.68267 160.257 6.256 160.791 5.936C161.324 5.59467 161.921 5.424 162.583 5.424H167.031C167.692 5.424 168.289 5.59467 168.823 5.936C169.356 6.256 169.783 6.68267 170.103 7.216C170.423 7.74933 170.583 8.34667 170.583 9.008V10.288C170.583 10.6933 170.444 11.0453 170.167 11.344C169.889 11.6213 169.548 11.76 169.143 11.76H168.247C167.841 11.76 167.5 11.6213 167.223 11.344C166.945 11.0453 166.807 10.6933 166.807 10.288V9.68C166.807 9.552 166.753 9.44533 166.647 9.36C166.561 9.27467 166.465 9.232 166.359 9.232H163.255C162.956 9.232 162.807 9.38133 162.807 9.68V10.8C162.807 11.0133 162.892 11.1413 163.063 11.184L167.703 12.656C168.577 12.9333 169.271 13.4347 169.783 14.16C170.316 14.8853 170.583 15.7067 170.583 16.624V18.416ZM182.69 20.528C182.69 20.9333 182.552 21.2853 182.274 21.584C181.997 21.8613 181.656 22 181.25 22H176.77C175.789 22 174.946 21.6587 174.242 20.976C173.56 20.272 173.218 19.4187 173.218 18.416V1.84C173.218 1.41333 173.357 1.06133 173.634 0.783998C173.912 0.506665 174.253 0.367998 174.658 0.367998H175.554C175.96 0.367998 176.301 0.506665 176.578 0.783998C176.877 1.06133 177.026 1.41333 177.026 1.84V5.04C177.026 5.296 177.165 5.424 177.442 5.424H181.25C181.656 5.424 181.997 5.57333 182.274 5.872C182.552 6.14933 182.69 6.50133 182.69 6.928V7.792C182.69 8.15467 182.552 8.496 182.274 8.816C181.954 9.09333 181.613 9.232 181.25 9.232H177.442C177.165 9.232 177.026 9.38133 177.026 9.68V17.808C177.026 18.0853 177.165 18.224 177.442 18.224H181.25C181.656 18.224 181.997 18.3627 182.274 18.64C182.552 18.9173 182.69 19.2693 182.69 19.696V20.528ZM190.112 2.416C190.112 3.07733 189.867 3.65333 189.376 4.144C188.907 4.61333 188.352 4.848 187.712 4.848C187.051 4.848 186.475 4.61333 185.984 4.144C185.515 3.65333 185.28 3.07733 185.28 2.416C185.28 1.776 185.515 1.22133 185.984 0.751999C186.475 0.261332 187.051 0.0159988 187.712 0.0159988C188.352 0.0159988 188.907 0.261332 189.376 0.751999C189.867 1.22133 190.112 1.776 190.112 2.416ZM189.6 20.528C189.6 20.9333 189.451 21.2853 189.152 21.584C188.875 21.8613 188.533 22 188.128 22H187.264C186.859 22 186.507 21.8613 186.208 21.584C185.931 21.2853 185.792 20.9333 185.792 20.528V7.248C185.792 6.84267 185.931 6.50133 186.208 6.224C186.507 5.92533 186.859 5.776 187.264 5.776H188.128C188.533 5.776 188.875 5.92533 189.152 6.224C189.451 6.50133 189.6 6.84267 189.6 7.248V20.528ZM204.27 18.416C204.27 19.4187 203.918 20.272 203.214 20.976C202.532 21.6587 201.7 22 200.718 22H196.27C195.289 22 194.446 21.6587 193.742 20.976C193.038 20.272 192.686 19.4187 192.686 18.416V9.008C192.686 8.34667 192.846 7.74933 193.166 7.216C193.508 6.66133 193.945 6.224 194.478 5.904C195.012 5.584 195.609 5.424 196.27 5.424H200.718C201.38 5.424 201.977 5.584 202.51 5.904C203.044 6.224 203.47 6.66133 203.79 7.216C204.11 7.74933 204.27 8.34667 204.27 9.008V10.672C204.27 11.0773 204.132 11.4293 203.854 11.728C203.577 12.0053 203.236 12.144 202.83 12.144H201.934C201.529 12.144 201.188 12.0053 200.91 11.728C200.633 11.4293 200.494 11.0773 200.494 10.672V9.68C200.494 9.552 200.441 9.44533 200.334 9.36C200.249 9.27467 200.153 9.232 200.046 9.232H196.942C196.836 9.232 196.729 9.27467 196.622 9.36C196.537 9.44533 196.494 9.552 196.494 9.68V17.808C196.494 17.9147 196.537 18.0107 196.622 18.096C196.729 18.1813 196.836 18.224 196.942 18.224H200.046C200.153 18.224 200.249 18.1813 200.334 18.096C200.441 18.0107 200.494 17.9147 200.494 17.808V16.816C200.494 16.4107 200.633 16.0693 200.91 15.792C201.188 15.4933 201.529 15.344 201.934 15.344H202.83C203.236 15.344 203.577 15.4933 203.854 15.792C204.132 16.0693 204.27 16.4107 204.27 16.816V18.416Z" fill="white"/>
</svg>
